<?xml version="1.0" standalone="no"?>
<!DOCTYPE svg PUBLIC "-//W3C//DTD SVG 20010904//EN"
 "http://www.w3.org/TR/2001/REC-SVG-20010904/DTD/svg10.dtd">
<svg version="1.0" xmlns="http://www.w3.org/2000/svg"
 width="976.000000pt" height="976.000000pt" viewBox="0 0 976.000000 976.000000"
 preserveAspectRatio="xMidYMid meet">
<metadata>
Created by potrace 1.11, written by Peter Selinger 2001-2013
</metadata>
<g transform="translate(0.000000,976.000000) scale(0.100000,-0.100000)"
fill="#000000" stroke="none">
<path d="M2680 7879 c0 -5 -12 -36 -26 -67 -15 -31 -44 -97 -66 -147 -22 -49
-50 -112 -63 -140 -74 -160 -92 -204 -87 -209 3 -3 0 -6 -6 -6 -7 0 -12 -5
-12 -10 0 -9 -48 -117 -166 -378 -13 -29 -24 -54 -24 -57 0 -2 -16 -39 -36
-82 -20 -43 -49 -106 -65 -141 -16 -35 -29 -65 -29 -67 0 -2 -20 -46 -45 -99
-25 -53 -45 -99 -45 -102 0 -3 -15 -38 -34 -77 -18 -40 -70 -155 -116 -257
-45 -102 -90 -203 -100 -225 -233 -519 -283 -632 -288 -645 -3 -8 -27 -62 -54
-119 -26 -57 -48 -105 -48 -108 0 -2 -12 -30 -27 -61 -15 -31 -28 -59 -29 -62
-1 -7 -29 -69 -70 -158 -19 -40 -37 -84 -40 -98 -3 -13 -10 -24 -15 -24 -5 0
-9 -5 -9 -11 0 -11 -70 -173 -138 -319 -15 -30 -27 -57 -27 -60 -1 -3 -13 -31
-28 -64 -15 -32 -27 -60 -27 -62 0 -1 -17 -40 -39 -86 -52 -112 -146 -322
-147 -328 0 -3 -14 -34 -31 -70 -17 -36 -45 -99 -63 -140 -18 -41 -48 -108
-66 -148 -19 -41 -34 -75 -34 -77 0 -2 -17 -41 -38 -87 -36 -76 -126 -278
-174 -388 -11 -25 -32 -72 -48 -105 -15 -33 -39 -88 -55 -122 -15 -34 -27 -65
-26 -69 2 -4 -1 -10 -6 -13 -8 -5 -57 -107 -59 -120 0 -3 -12 -31 -26 -61 -14
-30 -42 -93 -62 -140 -21 -47 -46 -102 -57 -122 -11 -21 -17 -38 -13 -38 3 0
1 -7 -6 -15 -11 -13 -8 -15 21 -15 19 -1 207 0 419 0 369 1 433 1 448 -1 4 -1
39 -1 77 0 l71 1 89 182 c50 101 93 185 96 188 4 3 10 16 14 30 4 14 14 33 23
43 8 9 12 17 9 17 -4 0 3 17 15 38 20 35 46 86 106 212 14 30 30 57 34 58 4 2
8 8 8 14 0 13 163 341 173 349 5 3 8 8 6 10 -2 5 109 231 119 241 6 6 200
-275 211 -306 2 -6 7 -13 10 -16 4 -3 22 -30 41 -60 19 -30 38 -59 43 -65 20
-25 137 -208 137 -215 0 -5 4 -10 8 -12 4 -1 69 -97 144 -213 75 -115 183
-281 240 -368 l104 -157 32 45 c18 25 32 50 32 54 0 5 4 11 8 13 5 2 33 39 63
83 30 44 57 84 62 90 21 28 118 167 152 220 22 33 43 65 48 70 5 6 55 78 112
160 57 83 107 155 112 160 15 18 88 126 98 146 5 10 13 19 17 19 5 0 8 7 8 15
0 8 5 15 10 15 6 0 10 7 10 15 0 8 3 15 8 15 4 0 27 30 52 68 24 37 47 69 50
72 3 3 27 38 54 77 26 40 51 73 55 73 3 0 26 -42 50 -93 25 -51 122 -249 216
-442 95 -192 227 -461 294 -597 l121 -248 53 0 c251 -3 981 1 984 4 3 2 -2 19
-10 38 -9 18 -32 71 -53 118 -20 47 -54 122 -75 168 -22 45 -42 94 -45 107 -3
14 -10 25 -15 25 -5 0 -9 7 -9 15 0 8 -9 30 -20 50 -11 19 -20 37 -20 40 -1 8
-62 149 -101 231 -10 22 -19 46 -19 52 0 7 -4 12 -10 12 -5 0 -9 3 -8 8 1 4
-4 18 -9 32 -18 42 -89 201 -120 270 -17 36 -75 166 -131 290 -55 124 -114
255 -131 293 -17 37 -31 69 -31 71 0 2 -18 44 -41 93 -48 106 -50 108 -134
298 -37 83 -80 178 -96 213 -16 34 -29 64 -29 67 0 2 -13 32 -29 67 -16 35
-41 90 -56 123 -15 33 -37 83 -50 110 -22 49 -48 107 -87 195 -11 25 -29 65
-41 90 -11 25 -28 63 -37 85 -10 22 -32 70 -49 108 -17 37 -31 69 -31 71 0 4
-56 126 -98 216 -9 19 -17 37 -17 40 -1 3 -11 25 -22 50 -11 25 -39 86 -61
135 -68 154 -83 188 -119 265 -19 41 -36 80 -37 85 -2 6 -16 39 -33 75 -17 36
-67 146 -111 245 -44 99 -91 205 -105 235 -13 30 -39 88 -57 129 -31 71 -86
195 -115 256 -18 39 -46 101 -143 321 -91 205 -113 255 -152 339 -15 33 -49
108 -75 168 -42 95 -65 129 -65 96z m55 -2489 c21 -52 51 -123 67 -158 15 -34
28 -68 28 -75 0 -6 7 -25 16 -42 9 -16 38 -86 66 -155 28 -69 58 -141 68 -160
10 -19 18 -39 18 -43 0 -4 15 -42 33 -85 79 -189 159 -386 159 -392 0 -6 -95
-139 -119 -167 -6 -7 -11 -16 -11 -22 0 -5 -4 -11 -9 -13 -5 -1 -21 -22 -37
-44 -16 -23 -69 -96 -119 -163 -49 -67 -109 -149 -131 -181 -57 -81 -84 -114
-88 -109 -9 10 -146 222 -146 226 0 2 -22 37 -50 78 -27 41 -50 78 -50 84 0 5
-3 11 -8 13 -4 2 -54 76 -111 166 l-103 163 15 37 c9 20 44 105 77 187 34 83
68 164 76 182 8 17 14 34 14 37 0 3 8 25 19 49 10 23 33 78 51 122 18 44 38
94 45 110 12 28 44 105 67 165 5 14 8 25 6 25 -2 1 4 12 13 25 12 20 49 107
55 130 0 3 9 23 19 45 18 38 21 46 24 62 2 11 7 1 46 -97z"/>
<path d="M5350 7842 c0 -5 34 -72 157 -312 192 -371 253 -490 309 -600 32 -63
60 -117 63 -120 4 -3 50 -93 104 -200 212 -419 272 -535 282 -542 7 -5 7 -8 0
-8 -7 0 -7 -3 0 -8 6 -4 50 -86 99 -182 49 -96 122 -239 162 -317 41 -79 74
-146 74 -150 0 -5 -254 -8 -565 -8 l-565 1 0 -1758 0 -1758 100 -1 c82 0 187
0 398 2 9 0 133 -1 276 -1 142 -1 261 1 263 4 3 3 6 582 7 1287 l1 1283 288 1
288 0 79 -128 c44 -70 80 -131 80 -136 0 -5 3 -11 8 -13 9 -4 72 -107 72 -119
0 -5 5 -9 10 -9 6 0 10 -4 10 -9 0 -4 27 -53 61 -107 33 -54 64 -106 69 -114
5 -8 41 -66 80 -128 38 -63 70 -115 70 -117 0 -2 18 -31 40 -64 22 -33 40 -62
40 -65 0 -9 65 -111 73 -114 4 -2 7 -8 7 -14 0 -6 18 -37 40 -70 22 -33 40
-64 40 -68 0 -4 9 -18 19 -31 21 -27 54 -81 74 -119 7 -14 29 -51 50 -82 20
-31 37 -62 37 -68 0 -5 3 -10 8 -10 4 0 19 -21 32 -47 14 -27 28 -49 33 -51 4
-2 7 -10 7 -17 0 -7 3 -15 8 -17 9 -4 112 -176 112 -188 0 -5 4 -10 8 -12 7
-2 58 -82 97 -150 6 -10 55 -91 110 -180 55 -89 102 -167 104 -173 2 -5 13
-23 25 -40 29 -41 45 -67 52 -87 3 -10 15 -20 25 -23 10 -4 195 -6 411 -5 216
1 407 1 423 0 101 -3 255 -5 255 -2 0 2 -52 96 -116 210 -64 114 -130 232
-147 262 -16 30 -48 87 -71 125 -22 39 -52 94 -68 123 -15 30 -31 59 -36 65
-5 7 -25 41 -43 77 -19 36 -37 67 -41 68 -5 2 -8 8 -8 12 0 5 -21 47 -47 92
-27 46 -55 97 -63 113 -8 17 -17 32 -20 35 -5 5 -20 32 -71 130 -13 25 -27 47
-30 50 -3 3 -12 19 -21 35 -8 17 -54 99 -101 184 -48 85 -87 158 -87 163 0 4
-4 8 -8 8 -4 0 -13 12 -19 28 -7 15 -30 59 -52 97 -22 39 -51 90 -64 115 -13
25 -33 61 -44 80 -11 19 -72 127 -136 240 -63 113 -129 230 -147 260 -17 30
-36 67 -43 83 -6 15 -15 27 -19 27 -4 0 -8 9 -8 20 0 11 -4 20 -9 20 -5 0 -11
8 -13 18 -4 15 4 21 41 32 25 7 53 17 61 21 8 4 60 29 115 55 55 26 131 67
168 91 37 23 72 43 76 43 5 0 11 3 13 8 2 4 30 27 63 52 61 46 222 202 263
255 41 53 118 169 135 205 10 19 22 42 27 50 18 28 60 129 60 144 0 8 4 17 9
20 7 5 16 31 37 116 26 108 33 142 38 185 3 28 10 79 14 115 8 69 7 267 -2
335 -3 22 -8 63 -11 90 -7 53 -63 279 -75 305 -4 8 -12 26 -18 40 -79 184
-122 255 -238 395 -129 154 -319 306 -494 393 -25 13 -52 27 -60 32 -13 9 -65
31 -80 35 -3 0 -14 6 -26 12 -23 13 -276 99 -314 107 -26 5 -33 7 -115 26 -27
7 -65 14 -83 16 -18 1 -41 5 -50 8 -9 3 -42 8 -72 11 -30 4 -71 9 -90 11 -19
3 -62 7 -95 10 -75 6 -2175 12 -2175 6z m1868 -1001 c17 0 38 0 45 0 27 0 155
-10 197 -16 25 -3 65 -8 90 -11 25 -2 54 -7 65 -9 11 -3 43 -9 70 -15 74 -15
205 -59 243 -81 18 -10 38 -19 43 -19 5 0 15 -5 22 -10 7 -6 39 -30 71 -55
149 -113 228 -300 220 -520 -3 -77 -8 -130 -14 -130 -1 0 -4 -11 -6 -25 -8
-43 -63 -152 -101 -199 -87 -108 -210 -197 -352 -255 l-58 -23 -59 106 c-32
58 -60 112 -62 118 -2 7 -8 13 -13 13 -6 0 -8 4 -5 9 3 5 -1 14 -9 21 -8 7
-15 16 -15 19 0 4 -66 124 -146 267 -81 142 -156 277 -168 299 -12 22 -42 75
-67 119 -24 43 -63 113 -87 155 -23 42 -45 84 -49 94 -3 9 -9 17 -14 17 -5 0
-9 4 -9 10 0 5 -14 33 -31 61 -18 31 -26 55 -20 58 5 4 50 5 98 4 48 -1 103
-2 121 -2z"/>
</g>
</svg>
