<?xml version="1.0" encoding="UTF-8" standalone="no"?>
<svg
   xmlns:dc="http://purl.org/dc/elements/1.1/"
   xmlns:cc="http://creativecommons.org/ns#"
   xmlns:rdf="http://www.w3.org/1999/02/22-rdf-syntax-ns#"
   xmlns:svg="http://www.w3.org/2000/svg"
   xmlns="http://www.w3.org/2000/svg"
   xmlns:sodipodi="http://sodipodi.sourceforge.net/DTD/sodipodi-0.dtd"
   xmlns:inkscape="http://www.inkscape.org/namespaces/inkscape"
   width="24"
   height="24"
   viewBox="0 0 24 24"
   version="1.1"
   id="svg6"
   sodipodi:docname="baseline-call-24px.svg"
   inkscape:version="0.92.4 (5da689c313, 2019-01-14)">
  <metadata
     id="metadata12">
    <rdf:RDF>
      <cc:Work
         rdf:about="">
        <dc:format>image/svg+xml</dc:format>
        <dc:type
           rdf:resource="http://purl.org/dc/dcmitype/StillImage" />
      </cc:Work>
    </rdf:RDF>
  </metadata>
  <defs
     id="defs10" />
  <sodipodi:namedview
     pagecolor="#ffffff"
     bordercolor="#666666"
     borderopacity="1"
     objecttolerance="10"
     gridtolerance="10"
     guidetolerance="10"
     inkscape:pageopacity="0"
     inkscape:pageshadow="2"
     inkscape:window-width="1920"
     inkscape:window-height="1001"
     id="namedview8"
     showgrid="false"
     inkscape:zoom="9.8333333"
     inkscape:cx="9"
     inkscape:cy="9"
     inkscape:window-x="-9"
     inkscape:window-y="-9"
     inkscape:window-maximized="1"
     inkscape:current-layer="svg6" />
  <path
     d="M -3,3 H 21 V 27 H -3 Z"
     id="path2"
     inkscape:connector-curvature="0"
     style="fill:none" />
  <path
     d="m 22.68,16.506667 c -1.64,0 -3.226667,-0.266667 -4.706667,-0.746667 -0.466666,-0.16 -0.986666,-0.04 -1.346666,0.32 l -2.093334,2.626667 C 10.76,16.906667 7.226667,13.506667 5.3466667,9.6 L 7.946667,7.3866667 c 0.36,-0.3733334 0.466666,-0.8933334 0.32,-1.36 C 7.773333,4.5466667 7.52,2.96 7.52,1.32 7.52,0.6 6.92,0 6.2,0 H 1.5866667 C 0.8666667,0 0,0.32 0,1.32 0,13.706667 10.306667,24 22.68,24 23.626667,24 24,23.16 24,22.426667 v -4.6 c 0,-0.72 -0.6,-1.32 -1.32,-1.32 z"
     id="path4"
     style="fill:#ffffff;stroke-width:1.33333337"
     inkscape:connector-curvature="0" />
</svg>
