<?xml version="1.0" encoding="UTF-8" standalone="no"?>
<!-- Generator: Adobe Illustrator 15.0.0, SVG Export Plug-In . SVG Version: 6.00 Build 0)  -->

<svg
   xmlns:dc="http://purl.org/dc/elements/1.1/"
   xmlns:cc="http://creativecommons.org/ns#"
   xmlns:rdf="http://www.w3.org/1999/02/22-rdf-syntax-ns#"
   xmlns:svg="http://www.w3.org/2000/svg"
   xmlns="http://www.w3.org/2000/svg"
   xmlns:sodipodi="http://sodipodi.sourceforge.net/DTD/sodipodi-0.dtd"
   xmlns:inkscape="http://www.inkscape.org/namespaces/inkscape"
   version="1.1"
   id="Layer_1"
   x="0px"
   y="0px"
   width="32px"
   height="32px"
   viewBox="0 0 26 26"
   enable-background="new 0 0 26 26"
   xml:space="preserve"
   sodipodi:docname="icons8-linkedin.svg"
   inkscape:version="0.92.4 (5da689c313, 2019-01-14)"><metadata
   id="metadata11"><rdf:RDF><cc:Work
       rdf:about=""><dc:format>image/svg+xml</dc:format><dc:type
         rdf:resource="http://purl.org/dc/dcmitype/StillImage" /></cc:Work></rdf:RDF></metadata><defs
   id="defs9" /><sodipodi:namedview
   pagecolor="#ffffff"
   bordercolor="#666666"
   borderopacity="1"
   objecttolerance="10"
   gridtolerance="10"
   guidetolerance="10"
   inkscape:pageopacity="0"
   inkscape:pageshadow="2"
   inkscape:window-width="1920"
   inkscape:window-height="1001"
   id="namedview7"
   showgrid="false"
   inkscape:zoom="7.375"
   inkscape:cx="16"
   inkscape:cy="16"
   inkscape:window-x="-9"
   inkscape:window-y="-9"
   inkscape:window-maximized="1"
   inkscape:current-layer="Layer_1" />

<g
   id="g4"
   style="fill:#ffffff">
	<path
   fill="#000000"
   d="M21.125,0H4.875C2.182,0,0,2.182,0,4.875v16.25C0,23.818,2.182,26,4.875,26h16.25   C23.818,26,26,23.818,26,21.125V4.875C26,2.182,23.818,0,21.125,0z M8.039,22.069H4L3.977,9.977h4.039L8.039,22.069z M5.918,8.394   H5.893c-1.318,0-2.171-0.908-2.171-2.042c0-1.159,0.879-2.041,2.222-2.041c1.344,0,2.171,0.882,2.196,2.041   C8.14,7.485,7.287,8.394,5.918,8.394z M22.042,22.07h-4.075v-6.571c0-1.588-0.421-2.671-1.842-2.671   c-1.084,0-1.671,0.731-1.955,1.437c-0.104,0.253-0.13,0.604-0.13,0.957v6.849H9.945L9.922,9.977h4.095l0.023,1.705   c0.521-0.806,1.394-1.953,3.48-1.953c2.584,0,4.521,1.688,4.521,5.317V22.07z"
   id="path2"
   style="fill:#ffffff" />
</g>
</svg>